<svg fill="#ff6600" width="20" height="20" viewBox="0 0 128 128" xmlns="http://www.w3.org/2000/svg"><title>KaKi87</title><path d=" M 24.22 0.00 L 128.00 0.00 L 128.00 128.00 L 0.00 128.00 L 0.00 22.39 C 3.57 11.26 12.62 2.37 24.22 0.00 M 51.17 14.02 C 50.34 26.45 51.08 38.94 51.30 51.38 C 60.93 39.21 70.37 26.87 79.44 14.28 C 75.30 10.84 71.33 7.06 66.66 4.34 C 59.70 2.12 53.56 8.23 51.17 14.02 M 97.25 32.95 C 89.96 41.40 83.10 50.21 75.45 58.34 C 83.25 69.56 92.53 79.64 101.05 90.30 C 108.27 83.11 116.15 76.46 122.27 68.28 C 125.20 64.26 123.15 59.14 120.15 55.84 C 112.90 47.85 104.94 40.52 97.25 32.95 M 6.38 57.36 C 3.36 60.14 2.91 65.33 5.47 68.56 C 11.05 75.29 17.64 81.09 23.89 87.18 C 24.08 71.61 24.12 56.04 23.70 40.48 C 17.66 45.82 11.60 51.20 6.38 57.36 M 51.17 69.73 C 51.12 84.41 50.52 99.10 50.75 113.77 C 54.30 118.58 60.12 125.66 66.90 122.96 C 73.29 120.05 77.22 113.76 82.25 109.13 C 71.62 96.21 61.96 82.52 51.17 69.73 Z" /></svg>