<?xml version="1.0" encoding="UTF-8" standalone="no"?>
<svg
	width="20"
	height="20"
	viewBox="0 0 20 20"
	version="1.1"
	id="svg1"
	sodipodi:docname="visual-studio-marketplace.svg"
	inkscape:version="1.4.3 (0d15f75, 2025-12-25)"
	xmlns:inkscape="http://www.inkscape.org/namespaces/inkscape"
	xmlns:sodipodi="http://sodipodi.sourceforge.net/DTD/sodipodi-0.dtd"
	xmlns="http://www.w3.org/2000/svg"
	xmlns:svg="http://www.w3.org/2000/svg"
	xmlns:rdf="http://www.w3.org/1999/02/22-rdf-syntax-ns#"
	xmlns:cc="http://creativecommons.org/ns#"
	xmlns:dc="http://purl.org/dc/elements/1.1/">
	<defs
		id="defs1" />
	<sodipodi:namedview
		id="namedview1"
		pagecolor="#505050"
		bordercolor="#ffffff"
		borderopacity="1"
		inkscape:showpageshadow="0"
		inkscape:pageopacity="0"
		inkscape:pagecheckerboard="1"
		inkscape:deskcolor="#505050"
		inkscape:current-layer="svg1" />
	<title
		id="title1">Visual Studio Marketplace</title>
	<style
		id="style1">path{fill:#000000} @media (prefers-color-scheme:dark){path{fill:#FFFFFF}}</style>
	<path
		d="m 7.5901743,7.7330499 -1.61925,4.5339001 h -0.5715 l -1.61925,-4.5339001 h 0.5969 l 1.02235,2.9083001 q 0.1016,0.2794 0.17145,0.52705 0.06985,0.2413 0.1143,0.46355 0.04445,-0.22225 0.1143,-0.4699 0.06985,-0.24765 0.17145,-0.5334 l 1.016,-2.8956001 z M 10.777877,11.0541 q 0,0.60325 -0.43815,0.9398 -0.4381504,0.33655 -1.1811004,0.33655 -0.381,0 -0.70485,-0.05715 -0.32385,-0.05715 -0.53975,-0.15875 v -0.5461 q 0.2286,0.1016 0.56515,0.18415 0.3429,0.08255 0.70485,0.08255 0.508,0 0.762,-0.19685 0.2603504,-0.19685 0.2603504,-0.5334 0,-0.22225 -0.09525,-0.37465 -0.09525,-0.1524 -0.3302004,-0.2794 -0.2286,-0.13335 -0.64135,-0.2794 -0.57785,-0.2095501 -0.8763,-0.5143501 -0.2921,-0.3048 -0.2921,-0.83185 0,-0.36195 0.18415,-0.61595 0.18415,-0.26035 0.508,-0.40005 0.3302,-0.1397 0.75565,-0.1397 0.37465,0 0.6858004,0.06985 0.31115,0.06985 0.56515,0.18415 l -0.1778,0.48895 q -0.23495,-0.1016 -0.5143504,-0.17145 -0.27305,-0.06985 -0.5715,-0.06985 -0.42545,0 -0.64135,0.18415 -0.2159,0.1778 -0.2159,0.47625 0,0.2286 0.09525,0.381 0.09525,0.1524 0.31115,0.27305 0.2159,0.12065 0.5842,0.26035 0.40005,0.14605 0.6731004,0.3175001 0.2794,0.1651 0.4191,0.40005 0.14605,0.23495 0.14605,0.59055 z m 2.914649,1.21285 -1.49225,-3.9751001 h -0.0254 q 0.01905,0.19685 0.03175,0.5334 0.0127,0.3302 0.0127,0.69215 V 12.26695 h -0.52705 V 7.7330499 h 0.84455 l 1.397,3.7147501 h 0.0254 l 1.4224,-3.7147501 h 0.8382 V 12.26695 h -0.56515 V 9.4792999 q 0,-0.3302 0.0127,-0.65405 0.01905,-0.32385 0.03175,-0.52705 h -0.0254 l -1.5113,3.9687501 z"
		id="path1" />
	<metadata
		id="metadata1">
		<rdf:RDF>
			<cc:Work
				rdf:about="">
				<dc:title>Visual Studio Marketplace</dc:title>
			</cc:Work>
		</rdf:RDF>
	</metadata>
</svg>